<mxfile host="Electron" modified="2024-03-15T14:15:31.334Z" agent="Mozilla/5.0 (Windows NT 10.0; Win64; x64) AppleWebKit/537.36 (KHTML, like Gecko) draw.io/24.0.4 Chrome/120.0.6099.109 Electron/28.1.0 Safari/537.36" etag="pPKIr_2aTp7bPDo3gPkz" version="24.0.4" type="device">
  <diagram id="eFzki-lSGz5OJ-0lW4Ny" name="Pagina-1">
    <mxGraphModel dx="1735" dy="540" grid="1" gridSize="10" guides="1" tooltips="1" connect="1" arrows="1" fold="1" page="1" pageScale="1" pageWidth="827" pageHeight="1169" math="0" shadow="0">
      <root>
        <mxCell id="0" />
        <mxCell id="1" parent="0" />
        <mxCell id="AlMPL6mTLjFUVU2BrBLu-11" style="edgeStyle=orthogonalEdgeStyle;rounded=0;orthogonalLoop=1;jettySize=auto;html=1;entryX=0.5;entryY=0;entryDx=0;entryDy=0;endArrow=doubleBlock;endFill=1;" edge="1" parent="1" source="AlMPL6mTLjFUVU2BrBLu-1" target="AlMPL6mTLjFUVU2BrBLu-10">
          <mxGeometry relative="1" as="geometry">
            <Array as="points">
              <mxPoint x="545" y="70" />
              <mxPoint x="545" y="70" />
            </Array>
          </mxGeometry>
        </mxCell>
        <mxCell id="AlMPL6mTLjFUVU2BrBLu-44" style="edgeStyle=orthogonalEdgeStyle;rounded=0;orthogonalLoop=1;jettySize=auto;html=1;exitX=0;exitY=0.5;exitDx=0;exitDy=0;entryX=1;entryY=0.5;entryDx=0;entryDy=0;endArrow=doubleBlock;endFill=1;" edge="1" parent="1" source="AlMPL6mTLjFUVU2BrBLu-1">
          <mxGeometry relative="1" as="geometry">
            <mxPoint x="479" y="25" as="targetPoint" />
          </mxGeometry>
        </mxCell>
        <mxCell id="AlMPL6mTLjFUVU2BrBLu-56" style="edgeStyle=orthogonalEdgeStyle;rounded=0;orthogonalLoop=1;jettySize=auto;html=1;entryX=0;entryY=0.5;entryDx=0;entryDy=0;exitX=0.706;exitY=1.083;exitDx=0;exitDy=0;exitPerimeter=0;" edge="1" parent="1" source="AlMPL6mTLjFUVU2BrBLu-1" target="AlMPL6mTLjFUVU2BrBLu-50">
          <mxGeometry relative="1" as="geometry">
            <mxPoint x="595.0000000000002" y="-10" as="sourcePoint" />
            <Array as="points">
              <mxPoint x="595" y="43" />
              <mxPoint x="595" y="60" />
            </Array>
          </mxGeometry>
        </mxCell>
        <mxCell id="AlMPL6mTLjFUVU2BrBLu-58" style="edgeStyle=orthogonalEdgeStyle;rounded=0;orthogonalLoop=1;jettySize=auto;html=1;entryX=0;entryY=0.5;entryDx=0;entryDy=0;" edge="1" parent="1">
          <mxGeometry relative="1" as="geometry">
            <mxPoint x="595" y="40" as="sourcePoint" />
            <mxPoint x="659.9999999999998" y="97.50000000000023" as="targetPoint" />
            <Array as="points">
              <mxPoint x="595" y="98" />
              <mxPoint x="605" y="98" />
            </Array>
          </mxGeometry>
        </mxCell>
        <mxCell id="AlMPL6mTLjFUVU2BrBLu-59" style="edgeStyle=orthogonalEdgeStyle;rounded=0;orthogonalLoop=1;jettySize=auto;html=1;entryX=0;entryY=0.5;entryDx=0;entryDy=0;" edge="1" parent="1" target="AlMPL6mTLjFUVU2BrBLu-54">
          <mxGeometry relative="1" as="geometry">
            <mxPoint x="590" y="40" as="sourcePoint" />
            <Array as="points">
              <mxPoint x="595" y="140" />
            </Array>
          </mxGeometry>
        </mxCell>
        <mxCell id="AlMPL6mTLjFUVU2BrBLu-1" value="cinema" style="rounded=0;whiteSpace=wrap;html=1;" vertex="1" parent="1">
          <mxGeometry x="519" y="10" width="110" height="30" as="geometry" />
        </mxCell>
        <mxCell id="AlMPL6mTLjFUVU2BrBLu-12" value="" style="edgeStyle=orthogonalEdgeStyle;rounded=0;orthogonalLoop=1;jettySize=auto;html=1;" edge="1" parent="1" source="AlMPL6mTLjFUVU2BrBLu-3" target="AlMPL6mTLjFUVU2BrBLu-10">
          <mxGeometry relative="1" as="geometry" />
        </mxCell>
        <mxCell id="AlMPL6mTLjFUVU2BrBLu-67" style="edgeStyle=orthogonalEdgeStyle;rounded=0;orthogonalLoop=1;jettySize=auto;html=1;entryX=0;entryY=0.5;entryDx=0;entryDy=0;" edge="1" parent="1" source="AlMPL6mTLjFUVU2BrBLu-3" target="AlMPL6mTLjFUVU2BrBLu-60">
          <mxGeometry relative="1" as="geometry" />
        </mxCell>
        <mxCell id="AlMPL6mTLjFUVU2BrBLu-68" style="edgeStyle=orthogonalEdgeStyle;rounded=0;orthogonalLoop=1;jettySize=auto;html=1;entryX=0;entryY=0.5;entryDx=0;entryDy=0;" edge="1" parent="1" source="AlMPL6mTLjFUVU2BrBLu-3" target="AlMPL6mTLjFUVU2BrBLu-62">
          <mxGeometry relative="1" as="geometry" />
        </mxCell>
        <mxCell id="AlMPL6mTLjFUVU2BrBLu-69" style="edgeStyle=orthogonalEdgeStyle;rounded=0;orthogonalLoop=1;jettySize=auto;html=1;entryX=0;entryY=0.5;entryDx=0;entryDy=0;" edge="1" parent="1" source="AlMPL6mTLjFUVU2BrBLu-3" target="AlMPL6mTLjFUVU2BrBLu-64">
          <mxGeometry relative="1" as="geometry" />
        </mxCell>
        <mxCell id="AlMPL6mTLjFUVU2BrBLu-3" value="theater" style="rounded=0;whiteSpace=wrap;html=1;" vertex="1" parent="1">
          <mxGeometry x="515" y="175" width="60" height="30" as="geometry" />
        </mxCell>
        <mxCell id="AlMPL6mTLjFUVU2BrBLu-92" style="edgeStyle=orthogonalEdgeStyle;rounded=0;orthogonalLoop=1;jettySize=auto;html=1;exitX=0.5;exitY=0;exitDx=0;exitDy=0;entryX=1;entryY=0.5;entryDx=0;entryDy=0;" edge="1" parent="1" source="AlMPL6mTLjFUVU2BrBLu-4" target="AlMPL6mTLjFUVU2BrBLu-72">
          <mxGeometry relative="1" as="geometry" />
        </mxCell>
        <mxCell id="AlMPL6mTLjFUVU2BrBLu-93" style="edgeStyle=orthogonalEdgeStyle;rounded=0;orthogonalLoop=1;jettySize=auto;html=1;exitX=0.5;exitY=0;exitDx=0;exitDy=0;entryX=1;entryY=0.5;entryDx=0;entryDy=0;" edge="1" parent="1" source="AlMPL6mTLjFUVU2BrBLu-4" target="AlMPL6mTLjFUVU2BrBLu-74">
          <mxGeometry relative="1" as="geometry" />
        </mxCell>
        <mxCell id="AlMPL6mTLjFUVU2BrBLu-95" style="edgeStyle=orthogonalEdgeStyle;rounded=0;orthogonalLoop=1;jettySize=auto;html=1;exitX=0.5;exitY=0;exitDx=0;exitDy=0;entryX=1;entryY=0.5;entryDx=0;entryDy=0;" edge="1" parent="1" source="AlMPL6mTLjFUVU2BrBLu-4" target="AlMPL6mTLjFUVU2BrBLu-76">
          <mxGeometry relative="1" as="geometry" />
        </mxCell>
        <mxCell id="AlMPL6mTLjFUVU2BrBLu-96" style="edgeStyle=orthogonalEdgeStyle;rounded=0;orthogonalLoop=1;jettySize=auto;html=1;exitX=0.5;exitY=0;exitDx=0;exitDy=0;entryX=1;entryY=0.5;entryDx=0;entryDy=0;" edge="1" parent="1" source="AlMPL6mTLjFUVU2BrBLu-4" target="AlMPL6mTLjFUVU2BrBLu-78">
          <mxGeometry relative="1" as="geometry" />
        </mxCell>
        <mxCell id="AlMPL6mTLjFUVU2BrBLu-4" value="movie" style="rounded=0;whiteSpace=wrap;html=1;" vertex="1" parent="1">
          <mxGeometry x="145" y="175" width="60" height="35" as="geometry" />
        </mxCell>
        <mxCell id="AlMPL6mTLjFUVU2BrBLu-7" style="edgeStyle=orthogonalEdgeStyle;rounded=0;orthogonalLoop=1;jettySize=auto;html=1;entryX=1;entryY=0.444;entryDx=0;entryDy=0;entryPerimeter=0;endArrow=doubleBlock;endFill=1;" edge="1" parent="1" source="AlMPL6mTLjFUVU2BrBLu-3">
          <mxGeometry relative="1" as="geometry">
            <mxPoint x="475" y="189.98000000000002" as="targetPoint" />
          </mxGeometry>
        </mxCell>
        <mxCell id="AlMPL6mTLjFUVU2BrBLu-8" style="edgeStyle=orthogonalEdgeStyle;rounded=0;orthogonalLoop=1;jettySize=auto;html=1;entryX=0.021;entryY=0.452;entryDx=0;entryDy=0;entryPerimeter=0;endArrow=doubleBlock;endFill=1;" edge="1" parent="1" source="AlMPL6mTLjFUVU2BrBLu-4">
          <mxGeometry relative="1" as="geometry">
            <mxPoint x="236.26" y="190.33999999999997" as="targetPoint" />
          </mxGeometry>
        </mxCell>
        <mxCell id="AlMPL6mTLjFUVU2BrBLu-9" value="" style="endArrow=none;html=1;rounded=0;" edge="1" parent="1">
          <mxGeometry width="50" height="50" relative="1" as="geometry">
            <mxPoint x="505" y="210" as="sourcePoint" />
            <mxPoint x="505" y="170" as="targetPoint" />
          </mxGeometry>
        </mxCell>
        <mxCell id="AlMPL6mTLjFUVU2BrBLu-10" value="contains" style="rhombus;whiteSpace=wrap;html=1;" vertex="1" parent="1">
          <mxGeometry x="520" y="100" width="50" height="40" as="geometry" />
        </mxCell>
        <mxCell id="AlMPL6mTLjFUVU2BrBLu-13" value="" style="endArrow=none;html=1;rounded=0;" edge="1" parent="1">
          <mxGeometry width="50" height="50" relative="1" as="geometry">
            <mxPoint x="525" y="80" as="sourcePoint" />
            <mxPoint x="565" y="80" as="targetPoint" />
          </mxGeometry>
        </mxCell>
        <mxCell id="AlMPL6mTLjFUVU2BrBLu-18" style="edgeStyle=orthogonalEdgeStyle;rounded=0;orthogonalLoop=1;jettySize=auto;html=1;exitX=0;exitY=0.5;exitDx=0;exitDy=0;entryX=1;entryY=0.5;entryDx=0;entryDy=0;" edge="1" parent="1" source="AlMPL6mTLjFUVU2BrBLu-15" target="AlMPL6mTLjFUVU2BrBLu-16">
          <mxGeometry relative="1" as="geometry" />
        </mxCell>
        <mxCell id="AlMPL6mTLjFUVU2BrBLu-19" style="edgeStyle=orthogonalEdgeStyle;rounded=0;orthogonalLoop=1;jettySize=auto;html=1;entryX=0;entryY=0.5;entryDx=0;entryDy=0;" edge="1" parent="1" source="AlMPL6mTLjFUVU2BrBLu-15" target="AlMPL6mTLjFUVU2BrBLu-17">
          <mxGeometry relative="1" as="geometry" />
        </mxCell>
        <mxCell id="AlMPL6mTLjFUVU2BrBLu-28" style="edgeStyle=orthogonalEdgeStyle;rounded=0;orthogonalLoop=1;jettySize=auto;html=1;entryX=0.5;entryY=0;entryDx=0;entryDy=0;endArrow=doubleBlock;endFill=1;" edge="1" parent="1" source="AlMPL6mTLjFUVU2BrBLu-15" target="AlMPL6mTLjFUVU2BrBLu-27">
          <mxGeometry relative="1" as="geometry" />
        </mxCell>
        <mxCell id="AlMPL6mTLjFUVU2BrBLu-106" style="edgeStyle=orthogonalEdgeStyle;rounded=0;orthogonalLoop=1;jettySize=auto;html=1;exitX=0.5;exitY=0;exitDx=0;exitDy=0;entryX=0;entryY=0.5;entryDx=0;entryDy=0;" edge="1" parent="1" source="AlMPL6mTLjFUVU2BrBLu-15" target="AlMPL6mTLjFUVU2BrBLu-104">
          <mxGeometry relative="1" as="geometry" />
        </mxCell>
        <mxCell id="AlMPL6mTLjFUVU2BrBLu-108" style="edgeStyle=orthogonalEdgeStyle;rounded=0;orthogonalLoop=1;jettySize=auto;html=1;entryX=0;entryY=0.5;entryDx=0;entryDy=0;" edge="1" parent="1" source="AlMPL6mTLjFUVU2BrBLu-15" target="AlMPL6mTLjFUVU2BrBLu-102">
          <mxGeometry relative="1" as="geometry">
            <Array as="points">
              <mxPoint x="355" y="101" />
            </Array>
          </mxGeometry>
        </mxCell>
        <mxCell id="AlMPL6mTLjFUVU2BrBLu-15" value="showtime" style="rounded=0;whiteSpace=wrap;html=1;fillColor=#0050ef;fontColor=#ffffff;strokeColor=#001DBC;" vertex="1" parent="1">
          <mxGeometry x="325" y="175" width="60" height="30" as="geometry" />
        </mxCell>
        <mxCell id="AlMPL6mTLjFUVU2BrBLu-16" value="displays" style="rhombus;whiteSpace=wrap;html=1;" vertex="1" parent="1">
          <mxGeometry x="235" y="167.5" width="50" height="45" as="geometry" />
        </mxCell>
        <mxCell id="AlMPL6mTLjFUVU2BrBLu-17" value="exists" style="rhombus;whiteSpace=wrap;html=1;" vertex="1" parent="1">
          <mxGeometry x="425" y="167.5" width="50" height="45" as="geometry" />
        </mxCell>
        <mxCell id="AlMPL6mTLjFUVU2BrBLu-29" style="edgeStyle=orthogonalEdgeStyle;rounded=0;orthogonalLoop=1;jettySize=auto;html=1;exitX=0.5;exitY=0;exitDx=0;exitDy=0;" edge="1" parent="1" target="AlMPL6mTLjFUVU2BrBLu-27">
          <mxGeometry relative="1" as="geometry">
            <mxPoint x="355" y="330" as="sourcePoint" />
          </mxGeometry>
        </mxCell>
        <mxCell id="AlMPL6mTLjFUVU2BrBLu-30" style="edgeStyle=orthogonalEdgeStyle;rounded=0;orthogonalLoop=1;jettySize=auto;html=1;entryX=0.5;entryY=1;entryDx=0;entryDy=0;endArrow=doubleBlock;endFill=1;exitX=0.5;exitY=0;exitDx=0;exitDy=0;" edge="1" parent="1" source="AlMPL6mTLjFUVU2BrBLu-22">
          <mxGeometry relative="1" as="geometry">
            <mxPoint x="354.5" y="570" as="sourcePoint" />
            <mxPoint x="354.5" y="460" as="targetPoint" />
            <Array as="points">
              <mxPoint x="355" y="460" />
            </Array>
          </mxGeometry>
        </mxCell>
        <mxCell id="AlMPL6mTLjFUVU2BrBLu-40" style="edgeStyle=orthogonalEdgeStyle;rounded=0;orthogonalLoop=1;jettySize=auto;html=1;entryX=1;entryY=0.5;entryDx=0;entryDy=0;endArrow=doubleBlock;endFill=1;" edge="1" parent="1" source="AlMPL6mTLjFUVU2BrBLu-22" target="AlMPL6mTLjFUVU2BrBLu-39">
          <mxGeometry relative="1" as="geometry" />
        </mxCell>
        <mxCell id="AlMPL6mTLjFUVU2BrBLu-124" style="edgeStyle=orthogonalEdgeStyle;rounded=0;orthogonalLoop=1;jettySize=auto;html=1;entryX=0;entryY=0.5;entryDx=0;entryDy=0;" edge="1" parent="1" source="AlMPL6mTLjFUVU2BrBLu-22" target="AlMPL6mTLjFUVU2BrBLu-116">
          <mxGeometry relative="1" as="geometry" />
        </mxCell>
        <mxCell id="AlMPL6mTLjFUVU2BrBLu-125" style="edgeStyle=orthogonalEdgeStyle;rounded=0;orthogonalLoop=1;jettySize=auto;html=1;entryX=0;entryY=0.5;entryDx=0;entryDy=0;" edge="1" parent="1" source="AlMPL6mTLjFUVU2BrBLu-22" target="AlMPL6mTLjFUVU2BrBLu-118">
          <mxGeometry relative="1" as="geometry" />
        </mxCell>
        <mxCell id="AlMPL6mTLjFUVU2BrBLu-126" style="edgeStyle=orthogonalEdgeStyle;rounded=0;orthogonalLoop=1;jettySize=auto;html=1;entryX=0;entryY=0.5;entryDx=0;entryDy=0;" edge="1" parent="1" source="AlMPL6mTLjFUVU2BrBLu-22" target="AlMPL6mTLjFUVU2BrBLu-120">
          <mxGeometry relative="1" as="geometry" />
        </mxCell>
        <mxCell id="AlMPL6mTLjFUVU2BrBLu-127" style="edgeStyle=orthogonalEdgeStyle;rounded=0;orthogonalLoop=1;jettySize=auto;html=1;entryX=0;entryY=0.5;entryDx=0;entryDy=0;" edge="1" parent="1" source="AlMPL6mTLjFUVU2BrBLu-22" target="AlMPL6mTLjFUVU2BrBLu-122">
          <mxGeometry relative="1" as="geometry" />
        </mxCell>
        <mxCell id="AlMPL6mTLjFUVU2BrBLu-22" value="customer" style="rounded=0;whiteSpace=wrap;html=1;" vertex="1" parent="1">
          <mxGeometry x="325" y="530" width="60" height="30" as="geometry" />
        </mxCell>
        <mxCell id="AlMPL6mTLjFUVU2BrBLu-38" style="edgeStyle=orthogonalEdgeStyle;rounded=0;orthogonalLoop=1;jettySize=auto;html=1;entryX=0.5;entryY=1;entryDx=0;entryDy=0;" edge="1" parent="1" source="AlMPL6mTLjFUVU2BrBLu-24" target="AlMPL6mTLjFUVU2BrBLu-35">
          <mxGeometry relative="1" as="geometry" />
        </mxCell>
        <mxCell id="AlMPL6mTLjFUVU2BrBLu-41" style="edgeStyle=orthogonalEdgeStyle;rounded=0;orthogonalLoop=1;jettySize=auto;html=1;" edge="1" parent="1" source="AlMPL6mTLjFUVU2BrBLu-24" target="AlMPL6mTLjFUVU2BrBLu-39">
          <mxGeometry relative="1" as="geometry" />
        </mxCell>
        <mxCell id="AlMPL6mTLjFUVU2BrBLu-136" style="edgeStyle=orthogonalEdgeStyle;rounded=0;orthogonalLoop=1;jettySize=auto;html=1;entryX=1;entryY=0.5;entryDx=0;entryDy=0;" edge="1" parent="1" source="AlMPL6mTLjFUVU2BrBLu-24" target="AlMPL6mTLjFUVU2BrBLu-130">
          <mxGeometry relative="1" as="geometry" />
        </mxCell>
        <mxCell id="AlMPL6mTLjFUVU2BrBLu-137" style="edgeStyle=orthogonalEdgeStyle;rounded=0;orthogonalLoop=1;jettySize=auto;html=1;entryX=1;entryY=0.5;entryDx=0;entryDy=0;" edge="1" parent="1" source="AlMPL6mTLjFUVU2BrBLu-24" target="AlMPL6mTLjFUVU2BrBLu-132">
          <mxGeometry relative="1" as="geometry" />
        </mxCell>
        <mxCell id="AlMPL6mTLjFUVU2BrBLu-138" style="edgeStyle=orthogonalEdgeStyle;rounded=0;orthogonalLoop=1;jettySize=auto;html=1;entryX=1;entryY=0.5;entryDx=0;entryDy=0;" edge="1" parent="1" source="AlMPL6mTLjFUVU2BrBLu-24" target="AlMPL6mTLjFUVU2BrBLu-134">
          <mxGeometry relative="1" as="geometry" />
        </mxCell>
        <mxCell id="AlMPL6mTLjFUVU2BrBLu-24" value="review" style="rounded=0;whiteSpace=wrap;html=1;fillColor=#0050ef;fontColor=#ffffff;strokeColor=#001DBC;" vertex="1" parent="1">
          <mxGeometry x="145" y="530" width="60" height="30" as="geometry" />
        </mxCell>
        <mxCell id="AlMPL6mTLjFUVU2BrBLu-45" style="edgeStyle=orthogonalEdgeStyle;rounded=0;orthogonalLoop=1;jettySize=auto;html=1;exitX=1;exitY=0.5;exitDx=0;exitDy=0;entryX=0;entryY=0.5;entryDx=0;entryDy=0;" edge="1" parent="1" source="AlMPL6mTLjFUVU2BrBLu-26">
          <mxGeometry relative="1" as="geometry">
            <mxPoint x="429" y="25" as="targetPoint" />
          </mxGeometry>
        </mxCell>
        <mxCell id="AlMPL6mTLjFUVU2BrBLu-180" style="edgeStyle=orthogonalEdgeStyle;rounded=0;orthogonalLoop=1;jettySize=auto;html=1;entryX=1;entryY=0.5;entryDx=0;entryDy=0;" edge="1" parent="1" source="AlMPL6mTLjFUVU2BrBLu-26" target="AlMPL6mTLjFUVU2BrBLu-175">
          <mxGeometry relative="1" as="geometry" />
        </mxCell>
        <mxCell id="AlMPL6mTLjFUVU2BrBLu-181" style="edgeStyle=orthogonalEdgeStyle;rounded=0;orthogonalLoop=1;jettySize=auto;html=1;entryX=1;entryY=0.5;entryDx=0;entryDy=0;" edge="1" parent="1" source="AlMPL6mTLjFUVU2BrBLu-26" target="AlMPL6mTLjFUVU2BrBLu-173">
          <mxGeometry relative="1" as="geometry" />
        </mxCell>
        <mxCell id="AlMPL6mTLjFUVU2BrBLu-182" style="edgeStyle=orthogonalEdgeStyle;rounded=0;orthogonalLoop=1;jettySize=auto;html=1;entryX=1;entryY=0.5;entryDx=0;entryDy=0;" edge="1" parent="1" source="AlMPL6mTLjFUVU2BrBLu-26" target="AlMPL6mTLjFUVU2BrBLu-171">
          <mxGeometry relative="1" as="geometry" />
        </mxCell>
        <mxCell id="AlMPL6mTLjFUVU2BrBLu-183" style="edgeStyle=orthogonalEdgeStyle;rounded=0;orthogonalLoop=1;jettySize=auto;html=1;entryX=1;entryY=0.5;entryDx=0;entryDy=0;" edge="1" parent="1" source="AlMPL6mTLjFUVU2BrBLu-26" target="AlMPL6mTLjFUVU2BrBLu-169">
          <mxGeometry relative="1" as="geometry" />
        </mxCell>
        <mxCell id="AlMPL6mTLjFUVU2BrBLu-26" value="employee" style="rounded=0;whiteSpace=wrap;html=1;" vertex="1" parent="1">
          <mxGeometry x="324" y="10" width="60" height="30" as="geometry" />
        </mxCell>
        <mxCell id="AlMPL6mTLjFUVU2BrBLu-27" value="belongs" style="rhombus;whiteSpace=wrap;html=1;" vertex="1" parent="1">
          <mxGeometry x="330" y="250" width="50" height="37.5" as="geometry" />
        </mxCell>
        <mxCell id="AlMPL6mTLjFUVU2BrBLu-31" value="" style="endArrow=none;html=1;rounded=0;" edge="1" parent="1">
          <mxGeometry width="50" height="50" relative="1" as="geometry">
            <mxPoint x="330" y="500" as="sourcePoint" />
            <mxPoint x="380" y="500" as="targetPoint" />
          </mxGeometry>
        </mxCell>
        <mxCell id="AlMPL6mTLjFUVU2BrBLu-32" value="buys" style="rhombus;whiteSpace=wrap;html=1;" vertex="1" parent="1">
          <mxGeometry x="328" y="410" width="52" height="50" as="geometry" />
        </mxCell>
        <mxCell id="AlMPL6mTLjFUVU2BrBLu-34" style="edgeStyle=orthogonalEdgeStyle;rounded=0;orthogonalLoop=1;jettySize=auto;html=1;entryX=0.5;entryY=0;entryDx=0;entryDy=0;" edge="1" parent="1" source="AlMPL6mTLjFUVU2BrBLu-33" target="AlMPL6mTLjFUVU2BrBLu-32">
          <mxGeometry relative="1" as="geometry">
            <Array as="points">
              <mxPoint x="354" y="370" />
              <mxPoint x="354" y="370" />
            </Array>
          </mxGeometry>
        </mxCell>
        <mxCell id="AlMPL6mTLjFUVU2BrBLu-114" style="edgeStyle=orthogonalEdgeStyle;rounded=0;orthogonalLoop=1;jettySize=auto;html=1;" edge="1" parent="1" source="AlMPL6mTLjFUVU2BrBLu-33">
          <mxGeometry relative="1" as="geometry">
            <mxPoint x="400" y="380.0000000000001" as="targetPoint" />
          </mxGeometry>
        </mxCell>
        <mxCell id="AlMPL6mTLjFUVU2BrBLu-115" style="edgeStyle=orthogonalEdgeStyle;rounded=0;orthogonalLoop=1;jettySize=auto;html=1;entryX=0;entryY=0.5;entryDx=0;entryDy=0;" edge="1" parent="1" source="AlMPL6mTLjFUVU2BrBLu-33" target="AlMPL6mTLjFUVU2BrBLu-112">
          <mxGeometry relative="1" as="geometry" />
        </mxCell>
        <mxCell id="AlMPL6mTLjFUVU2BrBLu-33" value="ticket" style="rounded=0;whiteSpace=wrap;html=1;fillColor=#0050ef;fontColor=#ffffff;strokeColor=#001DBC;" vertex="1" parent="1">
          <mxGeometry x="324" y="330" width="76" height="30" as="geometry" />
        </mxCell>
        <mxCell id="AlMPL6mTLjFUVU2BrBLu-35" value="has" style="rhombus;whiteSpace=wrap;html=1;" vertex="1" parent="1">
          <mxGeometry x="130" y="307.5" width="90" height="75" as="geometry" />
        </mxCell>
        <mxCell id="AlMPL6mTLjFUVU2BrBLu-36" style="edgeStyle=orthogonalEdgeStyle;rounded=0;orthogonalLoop=1;jettySize=auto;html=1;entryX=0.487;entryY=0.051;entryDx=0;entryDy=0;entryPerimeter=0;endArrow=doubleBlock;endFill=1;" edge="1" parent="1" source="AlMPL6mTLjFUVU2BrBLu-4" target="AlMPL6mTLjFUVU2BrBLu-35">
          <mxGeometry relative="1" as="geometry">
            <Array as="points">
              <mxPoint x="174" y="240" />
              <mxPoint x="174" y="240" />
            </Array>
          </mxGeometry>
        </mxCell>
        <mxCell id="AlMPL6mTLjFUVU2BrBLu-37" value="" style="endArrow=none;html=1;rounded=0;" edge="1" parent="1">
          <mxGeometry width="50" height="50" relative="1" as="geometry">
            <mxPoint x="145" y="280" as="sourcePoint" />
            <mxPoint x="205" y="280" as="targetPoint" />
          </mxGeometry>
        </mxCell>
        <mxCell id="AlMPL6mTLjFUVU2BrBLu-39" value="leaves" style="rhombus;whiteSpace=wrap;html=1;" vertex="1" parent="1">
          <mxGeometry x="235" y="522.5" width="50" height="45" as="geometry" />
        </mxCell>
        <mxCell id="AlMPL6mTLjFUVU2BrBLu-42" value="" style="endArrow=none;html=1;rounded=0;" edge="1" parent="1">
          <mxGeometry width="50" height="50" relative="1" as="geometry">
            <mxPoint x="315" y="565" as="sourcePoint" />
            <mxPoint x="315" y="525" as="targetPoint" />
          </mxGeometry>
        </mxCell>
        <mxCell id="AlMPL6mTLjFUVU2BrBLu-43" value="works" style="rhombus;whiteSpace=wrap;html=1;" vertex="1" parent="1">
          <mxGeometry x="430" y="2.5" width="50" height="45" as="geometry" />
        </mxCell>
        <mxCell id="AlMPL6mTLjFUVU2BrBLu-46" value="" style="endArrow=none;html=1;rounded=0;" edge="1" parent="1">
          <mxGeometry width="50" height="50" relative="1" as="geometry">
            <mxPoint x="509" y="40" as="sourcePoint" />
            <mxPoint x="509" y="10" as="targetPoint" />
          </mxGeometry>
        </mxCell>
        <mxCell id="AlMPL6mTLjFUVU2BrBLu-48" value="" style="endArrow=none;html=1;rounded=0;" edge="1" parent="1">
          <mxGeometry width="50" height="50" relative="1" as="geometry">
            <mxPoint x="215" y="210" as="sourcePoint" />
            <mxPoint x="215" y="180" as="targetPoint" />
          </mxGeometry>
        </mxCell>
        <mxCell id="AlMPL6mTLjFUVU2BrBLu-50" value="" style="ellipse;whiteSpace=wrap;html=1;aspect=fixed;" vertex="1" parent="1">
          <mxGeometry x="655" y="45" width="30" height="30" as="geometry" />
        </mxCell>
        <mxCell id="AlMPL6mTLjFUVU2BrBLu-51" value="Name" style="text;html=1;align=center;verticalAlign=middle;resizable=0;points=[];autosize=1;strokeColor=none;fillColor=none;" vertex="1" parent="1">
          <mxGeometry x="675" y="45" width="60" height="30" as="geometry" />
        </mxCell>
        <mxCell id="AlMPL6mTLjFUVU2BrBLu-52" value="" style="ellipse;whiteSpace=wrap;html=1;aspect=fixed;" vertex="1" parent="1">
          <mxGeometry x="655" y="82.5" width="30" height="30" as="geometry" />
        </mxCell>
        <mxCell id="AlMPL6mTLjFUVU2BrBLu-53" value="Adress" style="text;html=1;align=center;verticalAlign=middle;resizable=0;points=[];autosize=1;strokeColor=none;fillColor=none;" vertex="1" parent="1">
          <mxGeometry x="675" y="82.5" width="60" height="30" as="geometry" />
        </mxCell>
        <mxCell id="AlMPL6mTLjFUVU2BrBLu-54" value="" style="ellipse;whiteSpace=wrap;html=1;aspect=fixed;" vertex="1" parent="1">
          <mxGeometry x="655" y="125" width="30" height="30" as="geometry" />
        </mxCell>
        <mxCell id="AlMPL6mTLjFUVU2BrBLu-55" value="phone" style="text;html=1;align=center;verticalAlign=middle;resizable=0;points=[];autosize=1;strokeColor=none;fillColor=none;" vertex="1" parent="1">
          <mxGeometry x="675" y="125" width="60" height="30" as="geometry" />
        </mxCell>
        <mxCell id="AlMPL6mTLjFUVU2BrBLu-60" value="" style="ellipse;whiteSpace=wrap;html=1;aspect=fixed;" vertex="1" parent="1">
          <mxGeometry x="565" y="250" width="30" height="30" as="geometry" />
        </mxCell>
        <mxCell id="AlMPL6mTLjFUVU2BrBLu-61" value="Name" style="text;html=1;align=center;verticalAlign=middle;resizable=0;points=[];autosize=1;strokeColor=none;fillColor=none;" vertex="1" parent="1">
          <mxGeometry x="585" y="250" width="60" height="30" as="geometry" />
        </mxCell>
        <mxCell id="AlMPL6mTLjFUVU2BrBLu-62" value="" style="ellipse;whiteSpace=wrap;html=1;aspect=fixed;" vertex="1" parent="1">
          <mxGeometry x="565" y="287.5" width="30" height="30" as="geometry" />
        </mxCell>
        <mxCell id="AlMPL6mTLjFUVU2BrBLu-63" value="Capacity" style="text;html=1;align=center;verticalAlign=middle;resizable=0;points=[];autosize=1;strokeColor=none;fillColor=none;" vertex="1" parent="1">
          <mxGeometry x="585" y="287.5" width="70" height="30" as="geometry" />
        </mxCell>
        <mxCell id="AlMPL6mTLjFUVU2BrBLu-64" value="" style="ellipse;whiteSpace=wrap;html=1;aspect=fixed;" vertex="1" parent="1">
          <mxGeometry x="565" y="330" width="30" height="30" as="geometry" />
        </mxCell>
        <mxCell id="AlMPL6mTLjFUVU2BrBLu-65" value="Screentype" style="text;html=1;align=center;verticalAlign=middle;resizable=0;points=[];autosize=1;strokeColor=none;fillColor=none;" vertex="1" parent="1">
          <mxGeometry x="585" y="330" width="80" height="30" as="geometry" />
        </mxCell>
        <mxCell id="AlMPL6mTLjFUVU2BrBLu-66" value="" style="endArrow=none;html=1;rounded=0;" edge="1" parent="1">
          <mxGeometry width="50" height="50" relative="1" as="geometry">
            <mxPoint x="615" y="160" as="sourcePoint" />
            <mxPoint x="615" y="125" as="targetPoint" />
          </mxGeometry>
        </mxCell>
        <mxCell id="AlMPL6mTLjFUVU2BrBLu-70" value="" style="endArrow=none;html=1;rounded=0;" edge="1" parent="1">
          <mxGeometry width="50" height="50" relative="1" as="geometry">
            <mxPoint x="555" y="362.5" as="sourcePoint" />
            <mxPoint x="555" y="327.5" as="targetPoint" />
          </mxGeometry>
        </mxCell>
        <mxCell id="AlMPL6mTLjFUVU2BrBLu-71" value="" style="endArrow=none;html=1;rounded=0;" edge="1" parent="1">
          <mxGeometry width="50" height="50" relative="1" as="geometry">
            <mxPoint x="300" y="167.5" as="sourcePoint" />
            <mxPoint x="300" y="132.5" as="targetPoint" />
          </mxGeometry>
        </mxCell>
        <mxCell id="AlMPL6mTLjFUVU2BrBLu-72" value="" style="ellipse;whiteSpace=wrap;html=1;aspect=fixed;" vertex="1" parent="1">
          <mxGeometry x="70" width="30" height="30" as="geometry" />
        </mxCell>
        <mxCell id="AlMPL6mTLjFUVU2BrBLu-73" value="Title" style="text;html=1;align=center;verticalAlign=middle;resizable=0;points=[];autosize=1;strokeColor=none;fillColor=none;" vertex="1" parent="1">
          <mxGeometry x="20" width="50" height="30" as="geometry" />
        </mxCell>
        <mxCell id="AlMPL6mTLjFUVU2BrBLu-74" value="" style="ellipse;whiteSpace=wrap;html=1;aspect=fixed;" vertex="1" parent="1">
          <mxGeometry x="70" y="37.5" width="30" height="30" as="geometry" />
        </mxCell>
        <mxCell id="AlMPL6mTLjFUVU2BrBLu-75" value="Director" style="text;html=1;align=center;verticalAlign=middle;resizable=0;points=[];autosize=1;strokeColor=none;fillColor=none;" vertex="1" parent="1">
          <mxGeometry x="5" y="37.5" width="70" height="30" as="geometry" />
        </mxCell>
        <mxCell id="AlMPL6mTLjFUVU2BrBLu-76" value="" style="ellipse;whiteSpace=wrap;html=1;aspect=fixed;" vertex="1" parent="1">
          <mxGeometry x="70" y="80" width="30" height="30" as="geometry" />
        </mxCell>
        <mxCell id="AlMPL6mTLjFUVU2BrBLu-77" value="RealeaseDate" style="text;html=1;align=center;verticalAlign=middle;resizable=0;points=[];autosize=1;strokeColor=none;fillColor=none;" vertex="1" parent="1">
          <mxGeometry x="-10" y="80" width="100" height="30" as="geometry" />
        </mxCell>
        <mxCell id="AlMPL6mTLjFUVU2BrBLu-78" value="" style="ellipse;whiteSpace=wrap;html=1;aspect=fixed;" vertex="1" parent="1">
          <mxGeometry x="70" y="120" width="30" height="30" as="geometry" />
        </mxCell>
        <mxCell id="AlMPL6mTLjFUVU2BrBLu-79" value="Durationmin" style="text;html=1;align=center;verticalAlign=middle;resizable=0;points=[];autosize=1;strokeColor=none;fillColor=none;" vertex="1" parent="1">
          <mxGeometry x="-10" y="120" width="90" height="30" as="geometry" />
        </mxCell>
        <mxCell id="AlMPL6mTLjFUVU2BrBLu-80" value="" style="ellipse;whiteSpace=wrap;html=1;aspect=fixed;" vertex="1" parent="1">
          <mxGeometry x="70" y="160" width="30" height="30" as="geometry" />
        </mxCell>
        <mxCell id="AlMPL6mTLjFUVU2BrBLu-81" value="Rating" style="text;html=1;align=center;verticalAlign=middle;resizable=0;points=[];autosize=1;strokeColor=none;fillColor=none;" vertex="1" parent="1">
          <mxGeometry x="10" y="160" width="60" height="30" as="geometry" />
        </mxCell>
        <mxCell id="AlMPL6mTLjFUVU2BrBLu-97" style="edgeStyle=orthogonalEdgeStyle;rounded=0;orthogonalLoop=1;jettySize=auto;html=1;exitX=0.5;exitY=0;exitDx=0;exitDy=0;entryX=1.133;entryY=0.272;entryDx=0;entryDy=0;entryPerimeter=0;" edge="1" parent="1" source="AlMPL6mTLjFUVU2BrBLu-4" target="AlMPL6mTLjFUVU2BrBLu-80">
          <mxGeometry relative="1" as="geometry" />
        </mxCell>
        <mxCell id="AlMPL6mTLjFUVU2BrBLu-98" value="" style="endArrow=none;html=1;rounded=0;" edge="1" parent="1">
          <mxGeometry width="50" height="50" relative="1" as="geometry">
            <mxPoint x="150" y="107.75" as="sourcePoint" />
            <mxPoint x="150.42000000000002" y="77.5" as="targetPoint" />
          </mxGeometry>
        </mxCell>
        <mxCell id="AlMPL6mTLjFUVU2BrBLu-99" value="" style="endArrow=none;html=1;rounded=0;" edge="1" parent="1">
          <mxGeometry width="50" height="50" relative="1" as="geometry">
            <mxPoint x="144.17000000000002" y="170.25" as="sourcePoint" />
            <mxPoint x="144.59" y="140" as="targetPoint" />
          </mxGeometry>
        </mxCell>
        <mxCell id="AlMPL6mTLjFUVU2BrBLu-100" value="" style="endArrow=none;html=1;rounded=0;" edge="1" parent="1">
          <mxGeometry width="50" height="50" relative="1" as="geometry">
            <mxPoint x="150" y="150.25" as="sourcePoint" />
            <mxPoint x="150.42000000000002" y="120" as="targetPoint" />
          </mxGeometry>
        </mxCell>
        <mxCell id="AlMPL6mTLjFUVU2BrBLu-101" value="" style="endArrow=none;html=1;rounded=0;" edge="1" parent="1">
          <mxGeometry width="50" height="50" relative="1" as="geometry">
            <mxPoint x="145" y="62.75" as="sourcePoint" />
            <mxPoint x="145.42000000000002" y="32.5" as="targetPoint" />
          </mxGeometry>
        </mxCell>
        <mxCell id="AlMPL6mTLjFUVU2BrBLu-102" value="" style="ellipse;whiteSpace=wrap;html=1;aspect=fixed;" vertex="1" parent="1">
          <mxGeometry x="390" y="86.25" width="30" height="30" as="geometry" />
        </mxCell>
        <mxCell id="AlMPL6mTLjFUVU2BrBLu-103" value="ShowDateTime" style="text;html=1;align=center;verticalAlign=middle;resizable=0;points=[];autosize=1;strokeColor=none;fillColor=none;" vertex="1" parent="1">
          <mxGeometry x="405" y="86.25" width="110" height="30" as="geometry" />
        </mxCell>
        <mxCell id="AlMPL6mTLjFUVU2BrBLu-104" value="" style="ellipse;whiteSpace=wrap;html=1;aspect=fixed;" vertex="1" parent="1">
          <mxGeometry x="390" y="123.75" width="30" height="30" as="geometry" />
        </mxCell>
        <mxCell id="AlMPL6mTLjFUVU2BrBLu-105" value="Price" style="text;html=1;align=center;verticalAlign=middle;resizable=0;points=[];autosize=1;strokeColor=none;fillColor=none;" vertex="1" parent="1">
          <mxGeometry x="420" y="123.75" width="50" height="30" as="geometry" />
        </mxCell>
        <mxCell id="AlMPL6mTLjFUVU2BrBLu-110" value="" style="ellipse;whiteSpace=wrap;html=1;aspect=fixed;" vertex="1" parent="1">
          <mxGeometry x="399" y="360" width="30" height="30" as="geometry" />
        </mxCell>
        <mxCell id="AlMPL6mTLjFUVU2BrBLu-111" value="SeatNumber" style="text;html=1;align=center;verticalAlign=middle;resizable=0;points=[];autosize=1;strokeColor=none;fillColor=none;" vertex="1" parent="1">
          <mxGeometry x="420" y="360" width="90" height="30" as="geometry" />
        </mxCell>
        <mxCell id="AlMPL6mTLjFUVU2BrBLu-112" value="" style="ellipse;whiteSpace=wrap;html=1;aspect=fixed;" vertex="1" parent="1">
          <mxGeometry x="399" y="390" width="30" height="30" as="geometry" />
        </mxCell>
        <mxCell id="AlMPL6mTLjFUVU2BrBLu-113" value="PurchasedDateTime" style="text;html=1;align=center;verticalAlign=middle;resizable=0;points=[];autosize=1;strokeColor=none;fillColor=none;" vertex="1" parent="1">
          <mxGeometry x="420" y="390" width="130" height="30" as="geometry" />
        </mxCell>
        <mxCell id="AlMPL6mTLjFUVU2BrBLu-116" value="" style="ellipse;whiteSpace=wrap;html=1;aspect=fixed;" vertex="1" parent="1">
          <mxGeometry x="385" y="585" width="30" height="30" as="geometry" />
        </mxCell>
        <mxCell id="AlMPL6mTLjFUVU2BrBLu-117" value="FirstName" style="text;html=1;align=center;verticalAlign=middle;resizable=0;points=[];autosize=1;strokeColor=none;fillColor=none;" vertex="1" parent="1">
          <mxGeometry x="410" y="585" width="80" height="30" as="geometry" />
        </mxCell>
        <mxCell id="AlMPL6mTLjFUVU2BrBLu-118" value="" style="ellipse;whiteSpace=wrap;html=1;aspect=fixed;" vertex="1" parent="1">
          <mxGeometry x="385" y="622.5" width="30" height="30" as="geometry" />
        </mxCell>
        <mxCell id="AlMPL6mTLjFUVU2BrBLu-119" value="LastName" style="text;html=1;align=center;verticalAlign=middle;resizable=0;points=[];autosize=1;strokeColor=none;fillColor=none;" vertex="1" parent="1">
          <mxGeometry x="410" y="622.5" width="80" height="30" as="geometry" />
        </mxCell>
        <mxCell id="AlMPL6mTLjFUVU2BrBLu-120" value="" style="ellipse;whiteSpace=wrap;html=1;aspect=fixed;" vertex="1" parent="1">
          <mxGeometry x="385" y="665" width="30" height="30" as="geometry" />
        </mxCell>
        <mxCell id="AlMPL6mTLjFUVU2BrBLu-121" value="Email" style="text;html=1;align=center;verticalAlign=middle;resizable=0;points=[];autosize=1;strokeColor=none;fillColor=none;" vertex="1" parent="1">
          <mxGeometry x="410" y="665" width="50" height="30" as="geometry" />
        </mxCell>
        <mxCell id="AlMPL6mTLjFUVU2BrBLu-122" value="" style="ellipse;whiteSpace=wrap;html=1;aspect=fixed;" vertex="1" parent="1">
          <mxGeometry x="385" y="695" width="30" height="30" as="geometry" />
        </mxCell>
        <mxCell id="AlMPL6mTLjFUVU2BrBLu-123" value="phone" style="text;html=1;align=center;verticalAlign=middle;resizable=0;points=[];autosize=1;strokeColor=none;fillColor=none;" vertex="1" parent="1">
          <mxGeometry x="405" y="695" width="60" height="30" as="geometry" />
        </mxCell>
        <mxCell id="AlMPL6mTLjFUVU2BrBLu-128" value="" style="endArrow=none;html=1;rounded=0;" edge="1" parent="1">
          <mxGeometry width="50" height="50" relative="1" as="geometry">
            <mxPoint x="361.57" y="730" as="sourcePoint" />
            <mxPoint x="361.57" y="695" as="targetPoint" />
          </mxGeometry>
        </mxCell>
        <mxCell id="AlMPL6mTLjFUVU2BrBLu-129" value="" style="endArrow=none;html=1;rounded=0;" edge="1" parent="1">
          <mxGeometry width="50" height="50" relative="1" as="geometry">
            <mxPoint x="370" y="697.5" as="sourcePoint" />
            <mxPoint x="370" y="662.5" as="targetPoint" />
          </mxGeometry>
        </mxCell>
        <mxCell id="AlMPL6mTLjFUVU2BrBLu-130" value="" style="ellipse;whiteSpace=wrap;html=1;aspect=fixed;" vertex="1" parent="1">
          <mxGeometry x="115" y="587.5" width="30" height="30" as="geometry" />
        </mxCell>
        <mxCell id="AlMPL6mTLjFUVU2BrBLu-131" value="ReviewText" style="text;html=1;align=center;verticalAlign=middle;resizable=0;points=[];autosize=1;strokeColor=none;fillColor=none;" vertex="1" parent="1">
          <mxGeometry x="40" y="585" width="80" height="30" as="geometry" />
        </mxCell>
        <mxCell id="AlMPL6mTLjFUVU2BrBLu-132" value="" style="ellipse;whiteSpace=wrap;html=1;aspect=fixed;" vertex="1" parent="1">
          <mxGeometry x="115" y="625" width="30" height="30" as="geometry" />
        </mxCell>
        <mxCell id="AlMPL6mTLjFUVU2BrBLu-133" value="Rating" style="text;html=1;align=center;verticalAlign=middle;resizable=0;points=[];autosize=1;strokeColor=none;fillColor=none;" vertex="1" parent="1">
          <mxGeometry x="65" y="622.5" width="60" height="30" as="geometry" />
        </mxCell>
        <mxCell id="AlMPL6mTLjFUVU2BrBLu-134" value="" style="ellipse;whiteSpace=wrap;html=1;aspect=fixed;" vertex="1" parent="1">
          <mxGeometry x="115" y="667.5" width="30" height="30" as="geometry" />
        </mxCell>
        <mxCell id="AlMPL6mTLjFUVU2BrBLu-135" value="ReviewDate" style="text;html=1;align=center;verticalAlign=middle;resizable=0;points=[];autosize=1;strokeColor=none;fillColor=none;" vertex="1" parent="1">
          <mxGeometry x="35" y="665" width="90" height="30" as="geometry" />
        </mxCell>
        <mxCell id="AlMPL6mTLjFUVU2BrBLu-139" value="" style="endArrow=none;html=1;rounded=0;" edge="1" parent="1">
          <mxGeometry width="50" height="50" relative="1" as="geometry">
            <mxPoint x="160" y="657.5" as="sourcePoint" />
            <mxPoint x="160" y="622.5" as="targetPoint" />
          </mxGeometry>
        </mxCell>
        <mxCell id="AlMPL6mTLjFUVU2BrBLu-140" value="" style="endArrow=none;html=1;rounded=0;" edge="1" parent="1">
          <mxGeometry width="50" height="50" relative="1" as="geometry">
            <mxPoint x="160" y="617.5" as="sourcePoint" />
            <mxPoint x="160" y="582.5" as="targetPoint" />
          </mxGeometry>
        </mxCell>
        <mxCell id="AlMPL6mTLjFUVU2BrBLu-169" value="" style="ellipse;whiteSpace=wrap;html=1;aspect=fixed;" vertex="1" parent="1">
          <mxGeometry x="265" y="50" width="20" height="20" as="geometry" />
        </mxCell>
        <mxCell id="AlMPL6mTLjFUVU2BrBLu-170" value="FirstName" style="text;html=1;align=center;verticalAlign=middle;resizable=0;points=[];autosize=1;strokeColor=none;fillColor=none;" vertex="1" parent="1">
          <mxGeometry x="195" y="45" width="80" height="30" as="geometry" />
        </mxCell>
        <mxCell id="AlMPL6mTLjFUVU2BrBLu-171" value="" style="ellipse;whiteSpace=wrap;html=1;aspect=fixed;" vertex="1" parent="1">
          <mxGeometry x="265" y="80" width="20" height="20" as="geometry" />
        </mxCell>
        <mxCell id="AlMPL6mTLjFUVU2BrBLu-172" value="LastName" style="text;html=1;align=center;verticalAlign=middle;resizable=0;points=[];autosize=1;strokeColor=none;fillColor=none;" vertex="1" parent="1">
          <mxGeometry x="195" y="75" width="80" height="30" as="geometry" />
        </mxCell>
        <mxCell id="AlMPL6mTLjFUVU2BrBLu-173" value="" style="ellipse;whiteSpace=wrap;html=1;aspect=fixed;" vertex="1" parent="1">
          <mxGeometry x="265" y="110" width="20" height="20" as="geometry" />
        </mxCell>
        <mxCell id="AlMPL6mTLjFUVU2BrBLu-174" value="Position" style="text;html=1;align=center;verticalAlign=middle;resizable=0;points=[];autosize=1;strokeColor=none;fillColor=none;" vertex="1" parent="1">
          <mxGeometry x="205" y="105" width="70" height="30" as="geometry" />
        </mxCell>
        <mxCell id="AlMPL6mTLjFUVU2BrBLu-175" value="" style="ellipse;whiteSpace=wrap;html=1;aspect=fixed;" vertex="1" parent="1">
          <mxGeometry x="265" y="140" width="20" height="20" as="geometry" />
        </mxCell>
        <mxCell id="AlMPL6mTLjFUVU2BrBLu-176" value="HireDate" style="text;html=1;align=center;verticalAlign=middle;resizable=0;points=[];autosize=1;strokeColor=none;fillColor=none;" vertex="1" parent="1">
          <mxGeometry x="205" y="135" width="70" height="30" as="geometry" />
        </mxCell>
        <mxCell id="AlMPL6mTLjFUVU2BrBLu-177" value="" style="endArrow=none;html=1;rounded=0;" edge="1" parent="1">
          <mxGeometry width="50" height="50" relative="1" as="geometry">
            <mxPoint x="300" y="137.5" as="sourcePoint" />
            <mxPoint x="300" y="102.5" as="targetPoint" />
          </mxGeometry>
        </mxCell>
      </root>
    </mxGraphModel>
  </diagram>
</mxfile>
